<svg width="25" height="24" viewBox="0 0 25 24" fill="none" xmlns="http://www.w3.org/2000/svg">
<path d="M19.625 22H5.625C4.82935 22 4.06629 21.6839 3.50368 21.1213C2.94107 20.5587 2.625 19.7956 2.625 19V3C2.625 2.73478 2.73036 2.48043 2.91789 2.29289C3.10543 2.10536 3.35978 2 3.625 2H17.625C17.8902 2 18.1446 2.10536 18.3321 2.29289C18.5196 2.48043 18.625 2.73478 18.625 3V15H22.625V19C22.625 19.7956 22.3089 20.5587 21.7463 21.1213C21.1837 21.6839 20.4206 22 19.625 22ZM18.625 17V19C18.625 19.2652 18.7304 19.5196 18.9179 19.7071C19.1054 19.8946 19.3598 20 19.625 20C19.8902 20 20.1446 19.8946 20.3321 19.7071C20.5196 19.5196 20.625 19.2652 20.625 19V17H18.625ZM16.625 20V4H4.625V19C4.625 19.2652 4.73036 19.5196 4.91789 19.7071C5.10543 19.8946 5.35978 20 5.625 20H16.625ZM6.625 7H14.625V9H6.625V7ZM6.625 11H14.625V13H6.625V11ZM6.625 15H11.625V17H6.625V15Z" fill="black"/>
</svg>
