<svg width="25" height="24" viewBox="0 0 25 24" fill="none" xmlns="http://www.w3.org/2000/svg">
<path d="M3.375 3H21.375C21.6402 3 21.8946 3.10536 22.0821 3.29289C22.2696 3.48043 22.375 3.73478 22.375 4V20C22.375 20.2652 22.2696 20.5196 22.0821 20.7071C21.8946 20.8946 21.6402 21 21.375 21H3.375C3.10978 21 2.85543 20.8946 2.66789 20.7071C2.48036 20.5196 2.375 20.2652 2.375 20V4C2.375 3.73478 2.48036 3.48043 2.66789 3.29289C2.85543 3.10536 3.10978 3 3.375 3ZM20.375 12H4.375V19H20.375V12ZM20.375 8V5H4.375V8H20.375Z" fill="black"/>
</svg>
